<?xml version="1.0" encoding="UTF-8"?>
<svg width="127px" height="215px" viewBox="0 0 127 215" version="1.1" xmlns="http://www.w3.org/2000/svg" xmlns:xlink="http://www.w3.org/1999/xlink">
    <!-- Generator: Sketch 47.1 (45422) - http://www.bohemiancoding.com/sketch -->
    <title>developer</title>
    <desc>Created with Sketch.</desc>
    <defs></defs>
    <g id="Page-1" stroke="none" stroke-width="1" fill="none" fill-rule="evenodd">
        <g id="developer" fill="#000000">
            <g id="figure---developer-copy-3" transform="translate(57.500000, 109.000000) rotate(-345.000000) translate(-57.500000, -109.000000) translate(-15.000000, 5.000000)">
                <g id="laptop" transform="translate(107.007556, 88.099855) rotate(-15.000000) translate(-107.007556, -88.099855) translate(75.007556, 62.099855)">
                    <polygon id="arm-left-lower" points="50.4366513 40.7592498 50.4366513 51.1592498 0.436651288 51.1592498 0.436651288 40.7592498"></polygon>
                    <polygon id="laptop-screen" points="51.0456286 50.9880094 41 48.2962913 53.9409523 -9.9475983e-14 63.9865808 2.69171807"></polygon>
                </g>
                <g id="leg-right" transform="translate(71.384873, 173.631783) rotate(-90.000000) translate(-71.384873, -173.631783) translate(37.884873, 144.631783)">
                    <rect id="leg-right-lower" transform="translate(29.345974, 52.487270) rotate(-270.000000) translate(-29.345974, -52.487270) " x="24.3459742" y="23.9872705" width="10" height="57"></rect>
                    <rect id="leg-right-upper" transform="translate(54.688334, 28.891130) rotate(-15.000000) translate(-54.688334, -28.891130) " x="49.6883338" y="0.391129622" width="10" height="57"></rect>
                </g>
                <g id="arm" transform="translate(50.723602, 89.918387) scale(-1, 1) rotate(-45.000000) translate(-50.723602, -89.918387) translate(13.223602, 64.918387)">
                    <rect id="arm-left-upper" transform="translate(48.692346, 37.399495) rotate(-105.000000) translate(-48.692346, -37.399495) " x="43.4923463" y="12.3994949" width="10.4" height="50"></rect>
                    <rect id="arm-left-lower" transform="translate(17.349287, 25.003013) rotate(-210.000000) translate(-17.349287, -25.003013) " x="12.1492874" y="0.00301336043" width="10.4" height="50"></rect>
                </g>
                <g id="back" transform="translate(30.468965, 109.787747) scale(-1, 1) rotate(-75.000000) translate(-30.468965, -109.787747) translate(-26.531035, 93.787747)">
                    <rect id="back-lower" transform="translate(28.857055, 18.947153) rotate(-255.000000) translate(-28.857055, -18.947153) " x="23.8570554" y="-9.55284713" width="10" height="57"></rect>
                    <rect id="back-upper" transform="translate(77.256157, 19.756415) rotate(-105.000000) translate(-77.256157, -19.756415) " x="72.2561573" y="-5.24358497" width="10" height="50"></rect>
                    <rect id="back-neck" transform="translate(104.302080, 9.503348) rotate(-135.000000) translate(-104.302080, -9.503348) " x="99.3020804" y="2.00334829" width="10" height="15"></rect>
                </g>
                <circle id="head" cx="42.2600211" cy="30.5708101" r="30"></circle>
            </g>
        </g>
    </g>
</svg>